<svg width="406" height="81" viewBox="0 0 406 81" fill="none" xmlns="http://www.w3.org/2000/svg">
<rect width="406" height="80" transform="translate(0 1)" fill="#EFE5F2"/>
<g clip-path="url(#clip0_34_277)">
<rect width="56.25" height="56.25" transform="matrix(0.707106 -0.707107 0.707106 0.707107 40.9436 40.7184)" fill="white"/>
<rect width="21.6" height="7.2" transform="matrix(0.707106 -0.707107 0.707106 0.707107 40.9436 40.7184)" fill="url(#paint0_linear_34_277)"/>
<rect width="21.6" height="7.2" transform="matrix(0.707106 -0.707107 0.707106 0.707107 47.3076 47.0824)" fill="url(#paint1_linear_34_277)"/>
<rect width="21.6" height="7.2" transform="matrix(0.707106 -0.707107 0.707106 0.707107 100.128 50.9008)" fill="url(#paint2_linear_34_277)"/>
<rect width="21.6" height="7.2" transform="matrix(0.707106 -0.707107 0.707106 0.707107 93.7644 44.5368)" fill="url(#paint3_linear_34_277)"/>
<rect width="56.25" height="20.25" transform="matrix(0.707106 -0.707107 0.707106 0.707107 53.6716 53.4464)" fill="url(#paint4_linear_34_277)"/>
<rect width="33.525" height="16.2" transform="matrix(0.707106 -0.707107 0.707106 0.707107 57.0127 24.6494)" fill="url(#paint5_linear_34_277)"/>
<rect width="33.525" height="16.2" transform="matrix(0.707106 -0.707107 0.707106 0.707107 69.2632 69.0381)" fill="url(#paint6_linear_34_277)"/>
<rect width="31.95" height="31.95" transform="matrix(0.707106 -0.707107 0.707106 0.707107 58.1265 40.7184)" fill="#FFFEFE"/>
<rect x="0.126607" width="25.2459" height="25.2459" transform="matrix(0.707106 -0.707107 0.707106 0.707107 62.6181 40.808)" fill="#ADE1E9" fill-opacity="0.85" stroke="black" stroke-width="0.179049"/>
<circle cx="3.6" cy="3.6" r="3.4875" transform="matrix(0.707106 -0.707107 0.707106 0.707107 67.5132 40.2411)" fill="#D192E7" stroke="black" stroke-width="0.225"/>
<circle cx="3.6" cy="3.6" r="3.4875" transform="matrix(0.707106 -0.707107 0.707106 0.707107 75.1499 32.6044)" fill="#D9ADE9" stroke="black" stroke-width="0.225"/>
<circle cx="3.6" cy="3.6" r="3.4875" transform="matrix(0.707106 -0.707107 0.707106 0.707107 75.9456 48.6734)" fill="#D192E7" stroke="black" stroke-width="0.225"/>
<circle cx="3.6" cy="3.6" r="3.4875" transform="matrix(0.707106 -0.707107 0.707106 0.707107 83.5823 41.0366)" fill="#52D4E5" stroke="black" stroke-width="0.225"/>
<path d="M88.4809 6.40595C88.4809 13.2405 82.9404 18.7809 76.1059 18.7809C69.2714 18.7809 63.7309 13.2405 63.7309 6.40595C63.7309 -0.428578 69.2714 -5.96905 76.1059 -5.96905C82.9404 -5.96905 88.4809 -0.428578 88.4809 6.40595Z" fill="#D9ADE9" stroke="black" stroke-width="0.225"/>
<path d="M99.956 73.9059C99.956 80.7405 94.4155 86.2809 87.581 86.2809C80.7465 86.2809 75.206 80.7405 75.206 73.9059C75.206 67.0714 80.7465 61.5309 87.581 61.5309C94.4155 61.5309 99.956 67.0714 99.956 73.9059Z" fill="#D9ADE9" stroke="black" stroke-width="0.225"/>
</g>
<path d="M132.818 34V10.7273H135.636V22.2727H135.909L146.364 10.7273H150.045L140.273 21.2273L150.045 34H146.636L138.545 23.1818L135.636 26.4545V34H132.818ZM158.466 34.4091C157.36 34.4091 156.356 34.2008 155.455 33.7841C154.553 33.3598 153.837 32.75 153.307 31.9545C152.777 31.1515 152.511 30.1818 152.511 29.0455C152.511 28.0455 152.708 27.2348 153.102 26.6136C153.496 25.9848 154.023 25.4924 154.682 25.1364C155.341 24.7803 156.068 24.5152 156.864 24.3409C157.667 24.1591 158.473 24.0152 159.284 23.9091C160.345 23.7727 161.205 23.6705 161.864 23.6023C162.53 23.5265 163.015 23.4015 163.318 23.2273C163.629 23.053 163.784 22.75 163.784 22.3182V22.2273C163.784 21.1061 163.477 20.2348 162.864 19.6136C162.258 18.9924 161.337 18.6818 160.102 18.6818C158.822 18.6818 157.818 18.9621 157.091 19.5227C156.364 20.0833 155.852 20.6818 155.557 21.3182L153.011 20.4091C153.466 19.3485 154.072 18.5227 154.83 17.9318C155.595 17.3333 156.428 16.9167 157.33 16.6818C158.239 16.4394 159.133 16.3182 160.011 16.3182C160.572 16.3182 161.216 16.3864 161.943 16.5227C162.678 16.6515 163.386 16.9205 164.068 17.3295C164.758 17.7386 165.33 18.3561 165.784 19.1818C166.239 20.0076 166.466 21.1136 166.466 22.5V34H163.784V31.6364H163.648C163.466 32.0152 163.163 32.4205 162.739 32.8523C162.314 33.2841 161.75 33.6515 161.045 33.9545C160.341 34.2576 159.481 34.4091 158.466 34.4091ZM158.875 32C159.936 32 160.83 31.7917 161.557 31.375C162.292 30.9583 162.845 30.4205 163.216 29.7614C163.595 29.1023 163.784 28.4091 163.784 27.6818V25.2273C163.67 25.3636 163.42 25.4886 163.034 25.6023C162.655 25.7083 162.216 25.803 161.716 25.8864C161.223 25.9621 160.742 26.0303 160.273 26.0909C159.811 26.1439 159.436 26.1894 159.148 26.2273C158.451 26.3182 157.799 26.4659 157.193 26.6705C156.595 26.8674 156.11 27.1667 155.739 27.5682C155.375 27.9621 155.193 28.5 155.193 29.1818C155.193 30.1136 155.538 30.8182 156.227 31.2955C156.924 31.7652 157.807 32 158.875 32ZM178.952 16.5455V18.8182H169.906V16.5455H178.952ZM172.543 12.3636H175.224V29C175.224 29.7576 175.334 30.3258 175.554 30.7045C175.781 31.0758 176.069 31.3258 176.418 31.4545C176.774 31.5758 177.149 31.6364 177.543 31.6364C177.838 31.6364 178.08 31.6212 178.27 31.5909C178.459 31.553 178.611 31.5227 178.724 31.5L179.27 33.9091C179.088 33.9773 178.834 34.0455 178.509 34.1136C178.183 34.1894 177.77 34.2273 177.27 34.2273C176.512 34.2273 175.77 34.0644 175.043 33.7386C174.323 33.4129 173.724 32.9167 173.247 32.25C172.777 31.5833 172.543 30.7424 172.543 29.7273V12.3636ZM186.043 23.5V34H183.361V10.7273H186.043V19.2727H186.27C186.679 18.3712 187.293 17.6553 188.111 17.125C188.937 16.5871 190.035 16.3182 191.406 16.3182C192.596 16.3182 193.637 16.5568 194.531 17.0341C195.425 17.5038 196.118 18.2273 196.611 19.2045C197.111 20.1742 197.361 21.4091 197.361 22.9091V34H194.679V23.0909C194.679 21.7045 194.319 20.6326 193.599 19.875C192.887 19.1098 191.899 18.7273 190.634 18.7273C189.755 18.7273 188.967 18.9129 188.27 19.2841C187.58 19.6553 187.035 20.197 186.634 20.9091C186.24 21.6212 186.043 22.4848 186.043 23.5ZM209.585 34.3636C207.903 34.3636 206.453 33.9924 205.233 33.25C204.021 32.5 203.085 31.4545 202.426 30.1136C201.775 28.7652 201.449 27.197 201.449 25.4091C201.449 23.6212 201.775 22.0455 202.426 20.6818C203.085 19.3106 204.002 18.2424 205.176 17.4773C206.358 16.7045 207.737 16.3182 209.312 16.3182C210.222 16.3182 211.119 16.4697 212.006 16.7727C212.892 17.0758 213.699 17.5682 214.426 18.25C215.153 18.9242 215.733 19.8182 216.165 20.9318C216.597 22.0455 216.812 23.4167 216.812 25.0455V26.1818H203.358V23.8636H214.085C214.085 22.8788 213.888 22 213.494 21.2273C213.108 20.4545 212.555 19.8447 211.835 19.3977C211.123 18.9508 210.282 18.7273 209.312 18.7273C208.244 18.7273 207.32 18.9924 206.54 19.5227C205.767 20.0455 205.172 20.7273 204.756 21.5682C204.339 22.4091 204.131 23.3106 204.131 24.2727V25.8182C204.131 27.1364 204.358 28.2538 204.812 29.1705C205.275 30.0795 205.915 30.7727 206.733 31.25C207.551 31.7197 208.502 31.9545 209.585 31.9545C210.29 31.9545 210.926 31.8561 211.494 31.6591C212.07 31.4545 212.566 31.1515 212.983 30.75C213.4 30.3409 213.722 29.8333 213.949 29.2273L216.54 29.9545C216.267 30.8333 215.809 31.6061 215.165 32.2727C214.521 32.9318 213.725 33.447 212.778 33.8182C211.831 34.1818 210.767 34.3636 209.585 34.3636ZM220.892 34V16.5455H223.483V19.1818H223.665C223.983 18.3182 224.559 17.6174 225.392 17.0795C226.225 16.5417 227.165 16.2727 228.21 16.2727C228.407 16.2727 228.653 16.2765 228.949 16.2841C229.244 16.2917 229.468 16.303 229.619 16.3182V19.0455C229.528 19.0227 229.32 18.9886 228.994 18.9432C228.676 18.8902 228.339 18.8636 227.983 18.8636C227.134 18.8636 226.377 19.0417 225.71 19.3977C225.051 19.7462 224.528 20.2311 224.142 20.8523C223.763 21.4659 223.574 22.1667 223.574 22.9545V34H220.892ZM232.798 34V16.5455H235.48V34H232.798ZM234.162 13.6364C233.639 13.6364 233.188 13.4583 232.81 13.1023C232.438 12.7462 232.253 12.3182 232.253 11.8182C232.253 11.3182 232.438 10.8902 232.81 10.5341C233.188 10.178 233.639 10 234.162 10C234.685 10 235.132 10.178 235.503 10.5341C235.882 10.8902 236.071 11.3182 236.071 11.8182C236.071 12.3182 235.882 12.7462 235.503 13.1023C235.132 13.4583 234.685 13.6364 234.162 13.6364ZM243.074 23.5V34H240.392V16.5455H242.983V19.2727H243.21C243.619 18.3864 244.241 17.6742 245.074 17.1364C245.907 16.5909 246.983 16.3182 248.301 16.3182C249.483 16.3182 250.517 16.5606 251.403 17.0455C252.29 17.5227 252.979 18.25 253.472 19.2273C253.964 20.197 254.21 21.4242 254.21 22.9091V34H251.528V23.0909C251.528 21.7197 251.172 20.6515 250.46 19.8864C249.748 19.1136 248.771 18.7273 247.528 18.7273C246.672 18.7273 245.907 18.9129 245.233 19.2841C244.566 19.6553 244.04 20.197 243.653 20.9091C243.267 21.6212 243.074 22.4848 243.074 23.5ZM266.429 34.3636C264.747 34.3636 263.296 33.9924 262.077 33.25C260.865 32.5 259.929 31.4545 259.27 30.1136C258.618 28.7652 258.293 27.197 258.293 25.4091C258.293 23.6212 258.618 22.0455 259.27 20.6818C259.929 19.3106 260.846 18.2424 262.02 17.4773C263.202 16.7045 264.58 16.3182 266.156 16.3182C267.065 16.3182 267.963 16.4697 268.849 16.7727C269.736 17.0758 270.543 17.5682 271.27 18.25C271.997 18.9242 272.577 19.8182 273.009 20.9318C273.44 22.0455 273.656 23.4167 273.656 25.0455V26.1818H260.202V23.8636H270.929C270.929 22.8788 270.732 22 270.338 21.2273C269.952 20.4545 269.399 19.8447 268.679 19.3977C267.967 18.9508 267.126 18.7273 266.156 18.7273C265.088 18.7273 264.164 18.9924 263.384 19.5227C262.611 20.0455 262.016 20.7273 261.599 21.5682C261.183 22.4091 260.974 23.3106 260.974 24.2727V25.8182C260.974 27.1364 261.202 28.2538 261.656 29.1705C262.118 30.0795 262.759 30.7727 263.577 31.25C264.395 31.7197 265.346 31.9545 266.429 31.9545C267.134 31.9545 267.77 31.8561 268.338 31.6591C268.914 31.4545 269.41 31.1515 269.827 30.75C270.243 30.3409 270.565 29.8333 270.793 29.2273L273.384 29.9545C273.111 30.8333 272.652 31.6061 272.009 32.2727C271.365 32.9318 270.569 33.447 269.622 33.8182C268.675 34.1818 267.611 34.3636 266.429 34.3636ZM305.554 10.7273V34H302.827L290.145 15.7273H289.918V34H287.099V10.7273H289.827L302.554 29.0455H302.781V10.7273H305.554ZM317.92 34.3636C316.345 34.3636 314.962 33.9886 313.773 33.2386C312.591 32.4886 311.667 31.4394 311 30.0909C310.341 28.7424 310.011 27.1667 310.011 25.3636C310.011 23.5455 310.341 21.9583 311 20.6023C311.667 19.2462 312.591 18.1932 313.773 17.4432C314.962 16.6932 316.345 16.3182 317.92 16.3182C319.496 16.3182 320.875 16.6932 322.057 17.4432C323.246 18.1932 324.17 19.2462 324.83 20.6023C325.496 21.9583 325.83 23.5455 325.83 25.3636C325.83 27.1667 325.496 28.7424 324.83 30.0909C324.17 31.4394 323.246 32.4886 322.057 33.2386C320.875 33.9886 319.496 34.3636 317.92 34.3636ZM317.92 31.9545C319.117 31.9545 320.102 31.6477 320.875 31.0341C321.648 30.4205 322.22 29.6136 322.591 28.6136C322.962 27.6136 323.148 26.5303 323.148 25.3636C323.148 24.197 322.962 23.1098 322.591 22.1023C322.22 21.0947 321.648 20.2803 320.875 19.6591C320.102 19.0379 319.117 18.7273 317.92 18.7273C316.723 18.7273 315.739 19.0379 314.966 19.6591C314.193 20.2803 313.621 21.0947 313.25 22.1023C312.879 23.1098 312.693 24.197 312.693 25.3636C312.693 26.5303 312.879 27.6136 313.25 28.6136C313.621 29.6136 314.193 30.4205 314.966 31.0341C315.739 31.6477 316.723 31.9545 317.92 31.9545ZM343.571 16.5455L337.116 34H334.389L327.935 16.5455H330.844L335.662 30.4545H335.844L340.662 16.5455H343.571ZM347.111 34V16.5455H349.793V34H347.111ZM348.474 13.6364C347.952 13.6364 347.501 13.4583 347.122 13.1023C346.751 12.7462 346.565 12.3182 346.565 11.8182C346.565 11.3182 346.751 10.8902 347.122 10.5341C347.501 10.178 347.952 10 348.474 10C348.997 10 349.444 10.178 349.815 10.5341C350.194 10.8902 350.384 11.3182 350.384 11.8182C350.384 12.3182 350.194 12.7462 349.815 13.1023C349.444 13.4583 348.997 13.6364 348.474 13.6364ZM359.841 34.4091C358.735 34.4091 357.731 34.2008 356.83 33.7841C355.928 33.3598 355.212 32.75 354.682 31.9545C354.152 31.1515 353.886 30.1818 353.886 29.0455C353.886 28.0455 354.083 27.2348 354.477 26.6136C354.871 25.9848 355.398 25.4924 356.057 25.1364C356.716 24.7803 357.443 24.5152 358.239 24.3409C359.042 24.1591 359.848 24.0152 360.659 23.9091C361.72 23.7727 362.58 23.6705 363.239 23.6023C363.905 23.5265 364.39 23.4015 364.693 23.2273C365.004 23.053 365.159 22.75 365.159 22.3182V22.2273C365.159 21.1061 364.852 20.2348 364.239 19.6136C363.633 18.9924 362.712 18.6818 361.477 18.6818C360.197 18.6818 359.193 18.9621 358.466 19.5227C357.739 20.0833 357.227 20.6818 356.932 21.3182L354.386 20.4091C354.841 19.3485 355.447 18.5227 356.205 17.9318C356.97 17.3333 357.803 16.9167 358.705 16.6818C359.614 16.4394 360.508 16.3182 361.386 16.3182C361.947 16.3182 362.591 16.3864 363.318 16.5227C364.053 16.6515 364.761 16.9205 365.443 17.3295C366.133 17.7386 366.705 18.3561 367.159 19.1818C367.614 20.0076 367.841 21.1136 367.841 22.5V34H365.159V31.6364H365.023C364.841 32.0152 364.538 32.4205 364.114 32.8523C363.689 33.2841 363.125 33.6515 362.42 33.9545C361.716 34.2576 360.856 34.4091 359.841 34.4091ZM360.25 32C361.311 32 362.205 31.7917 362.932 31.375C363.667 30.9583 364.22 30.4205 364.591 29.7614C364.97 29.1023 365.159 28.4091 365.159 27.6818V25.2273C365.045 25.3636 364.795 25.4886 364.409 25.6023C364.03 25.7083 363.591 25.803 363.091 25.8864C362.598 25.9621 362.117 26.0303 361.648 26.0909C361.186 26.1439 360.811 26.1894 360.523 26.2273C359.826 26.3182 359.174 26.4659 358.568 26.6705C357.97 26.8674 357.485 27.1667 357.114 27.5682C356.75 27.9621 356.568 28.5 356.568 29.1818C356.568 30.1136 356.913 30.8182 357.602 31.2955C358.299 31.7652 359.182 32 360.25 32ZM375.418 23.5V34H372.736V16.5455H375.327V19.2727H375.554C375.963 18.3864 376.584 17.6742 377.418 17.1364C378.251 16.5909 379.327 16.3182 380.645 16.3182C381.827 16.3182 382.861 16.5606 383.747 17.0455C384.634 17.5227 385.323 18.25 385.815 19.2273C386.308 20.197 386.554 21.4242 386.554 22.9091V34H383.872V23.0909C383.872 21.7197 383.516 20.6515 382.804 19.8864C382.092 19.1136 381.115 18.7273 379.872 18.7273C379.016 18.7273 378.251 18.9129 377.577 19.2841C376.91 19.6553 376.384 20.197 375.997 20.9091C375.611 21.6212 375.418 22.4848 375.418 23.5Z" fill="#825C8F"/>
<path d="M143.568 47.2493H145.682V58.8061C145.682 59.9993 145.401 61.0646 144.838 62.0021C144.281 62.9339 143.494 63.6697 142.477 64.2095C141.46 64.7436 140.267 65.0106 138.898 65.0106C137.528 65.0106 136.335 64.7436 135.318 64.2095C134.301 63.6697 133.511 62.9339 132.949 62.0021C132.392 61.0646 132.114 59.9993 132.114 58.8061V47.2493H134.227V58.6356C134.227 59.4879 134.415 60.2464 134.79 60.9112C135.165 61.5703 135.699 62.0902 136.392 62.4708C137.091 62.8458 137.926 63.0333 138.898 63.0333C139.869 63.0333 140.705 62.8458 141.403 62.4708C142.102 62.0902 142.636 61.5703 143.006 60.9112C143.381 60.2464 143.568 59.4879 143.568 58.6356V47.2493ZM150.925 47.2493L155.425 54.5106H155.562L160.062 47.2493H162.55L157.062 55.9765L162.55 64.7038H160.062L155.562 57.5788H155.425L150.925 64.7038H148.437L154.062 55.9765L148.437 47.2493H150.925ZM171.199 46.4311L165.574 67.3288H163.733L169.358 46.4311H171.199ZM185.31 47.2493H187.424V58.8061C187.424 59.9993 187.143 61.0646 186.58 62.0021C186.023 62.9339 185.237 63.6697 184.219 64.2095C183.202 64.7436 182.009 65.0106 180.64 65.0106C179.271 65.0106 178.077 64.7436 177.06 64.2095C176.043 63.6697 175.254 62.9339 174.691 62.0021C174.134 61.0646 173.856 59.9993 173.856 58.8061V47.2493H175.969V58.6356C175.969 59.4879 176.157 60.2464 176.532 60.9112C176.907 61.5703 177.441 62.0902 178.134 62.4708C178.833 62.8458 179.668 63.0333 180.64 63.0333C181.612 63.0333 182.447 62.8458 183.146 62.4708C183.844 62.0902 184.379 61.5703 184.748 60.9112C185.123 60.2464 185.31 59.4879 185.31 58.6356V47.2493ZM193.759 47.2493V64.7038H191.645V47.2493H193.759ZM210.133 64.7038H204.746V47.2493H210.371C212.065 47.2493 213.513 47.5987 214.718 48.2975C215.923 48.9907 216.846 49.9879 217.488 51.289C218.13 52.5845 218.451 54.1356 218.451 55.9424C218.451 57.7606 218.127 59.326 217.479 60.6385C216.832 61.9453 215.888 62.951 214.65 63.6555C213.411 64.3544 211.906 64.7038 210.133 64.7038ZM206.86 62.8288H209.996C211.44 62.8288 212.636 62.5504 213.585 61.9936C214.533 61.4368 215.241 60.6441 215.707 59.6157C216.173 58.5873 216.406 57.3629 216.406 55.9424C216.406 54.5333 216.175 53.3203 215.715 52.3032C215.255 51.2805 214.567 50.4964 213.653 49.951C212.738 49.3998 211.599 49.1243 210.235 49.1243H206.86V62.8288ZM227.212 64.9765C225.951 64.9765 224.863 64.6981 223.948 64.1413C223.039 63.5788 222.337 62.7947 221.843 61.789C221.354 60.7777 221.11 59.6015 221.11 58.2606C221.11 56.9197 221.354 55.7379 221.843 54.7152C222.337 53.6868 223.025 52.8856 223.906 52.3118C224.792 51.7322 225.826 51.4424 227.008 51.4424C227.69 51.4424 228.363 51.5561 229.028 51.7833C229.692 52.0106 230.298 52.3799 230.843 52.8913C231.388 53.397 231.823 54.0674 232.147 54.9027C232.471 55.7379 232.633 56.7663 232.633 57.9879V58.8402H222.542V57.1015H230.587C230.587 56.3629 230.44 55.7038 230.144 55.1243C229.854 54.5447 229.44 54.0873 228.9 53.7521C228.366 53.4169 227.735 53.2493 227.008 53.2493C226.207 53.2493 225.513 53.4481 224.928 53.8458C224.349 54.2379 223.903 54.7493 223.59 55.3799C223.278 56.0106 223.121 56.6868 223.121 57.4083V58.5674C223.121 59.5561 223.292 60.3941 223.633 61.0816C223.979 61.7635 224.46 62.2833 225.073 62.6413C225.687 62.9936 226.4 63.1697 227.212 63.1697C227.741 63.1697 228.218 63.0958 228.644 62.9481C229.076 62.7947 229.448 62.5674 229.761 62.2663C230.073 61.9595 230.315 61.5788 230.485 61.1243L232.428 61.6697C232.224 62.3288 231.88 62.9083 231.397 63.4083C230.914 63.9027 230.317 64.289 229.607 64.5674C228.897 64.8402 228.099 64.9765 227.212 64.9765ZM244.965 54.5447L243.158 55.0561C243.045 54.7549 242.877 54.4623 242.656 54.1782C242.44 53.8885 242.144 53.6498 241.769 53.4623C241.394 53.2748 240.914 53.1811 240.329 53.1811C239.528 53.1811 238.86 53.3657 238.326 53.735C237.798 54.0987 237.533 54.5618 237.533 55.1243C237.533 55.6243 237.715 56.0191 238.079 56.3089C238.442 56.5987 239.011 56.8402 239.783 57.0333L241.727 57.5106C242.897 57.7947 243.769 58.2294 244.343 58.8146C244.917 59.3941 245.204 60.1413 245.204 61.0561C245.204 61.8061 244.988 62.4765 244.556 63.0674C244.13 63.6583 243.533 64.1243 242.766 64.4652C241.999 64.8061 241.107 64.9765 240.09 64.9765C238.755 64.9765 237.65 64.6868 236.775 64.1072C235.9 63.5277 235.346 62.6811 235.113 61.5674L237.022 61.0902C237.204 61.7947 237.548 62.3231 238.053 62.6754C238.565 63.0277 239.232 63.2038 240.056 63.2038C240.994 63.2038 241.738 63.0049 242.289 62.6072C242.846 62.2038 243.124 61.7208 243.124 61.1583C243.124 60.7038 242.965 60.3231 242.647 60.0163C242.329 59.7038 241.84 59.4708 241.181 59.3174L238.999 58.8061C237.8 58.522 236.92 58.0816 236.357 57.485C235.8 56.8828 235.522 56.1299 235.522 55.2265C235.522 54.4879 235.729 53.8345 236.144 53.2663C236.565 52.6981 237.136 52.2521 237.857 51.9282C238.585 51.6044 239.408 51.4424 240.329 51.4424C241.624 51.4424 242.641 51.7265 243.38 52.2947C244.124 52.8629 244.653 53.6129 244.965 54.5447ZM248.232 64.7038V51.6129H250.243V64.7038H248.232ZM249.254 49.4311C248.862 49.4311 248.524 49.2975 248.24 49.0305C247.962 48.7635 247.822 48.4424 247.822 48.0674C247.822 47.6924 247.962 47.3714 248.24 47.1044C248.524 46.8373 248.862 46.7038 249.254 46.7038C249.646 46.7038 249.982 46.8373 250.26 47.1044C250.544 47.3714 250.686 47.6924 250.686 48.0674C250.686 48.4424 250.544 48.7635 250.26 49.0305C249.982 49.2975 249.646 49.4311 249.254 49.4311ZM259.211 69.8856C258.239 69.8856 257.404 69.7606 256.705 69.5106C256.006 69.2663 255.424 68.9424 254.958 68.539C254.498 68.1413 254.131 67.7152 253.859 67.2606L255.461 66.1356C255.643 66.3743 255.873 66.647 256.151 66.9538C256.43 67.2663 256.81 67.5362 257.293 67.7635C257.782 67.9964 258.421 68.1129 259.211 68.1129C260.268 68.1129 261.14 67.8572 261.827 67.3458C262.515 66.8345 262.859 66.0333 262.859 64.9424V62.2833H262.688C262.54 62.522 262.33 62.8174 262.058 63.1697C261.79 63.5163 261.404 63.826 260.898 64.0987C260.398 64.3657 259.722 64.4993 258.87 64.4993C257.813 64.4993 256.864 64.2493 256.023 63.7493C255.188 63.2493 254.526 62.522 254.038 61.5674C253.555 60.6129 253.313 59.4538 253.313 58.0902C253.313 56.7493 253.549 55.5816 254.021 54.5873C254.492 53.5873 255.148 52.8146 255.989 52.2691C256.83 51.718 257.802 51.4424 258.904 51.4424C259.756 51.4424 260.433 51.5845 260.933 51.8686C261.438 52.147 261.825 52.4652 262.092 52.8231C262.364 53.1754 262.575 53.4652 262.722 53.6924H262.927V51.6129H264.87V65.0788C264.87 66.2038 264.614 67.1186 264.103 67.8231C263.597 68.5333 262.915 69.0532 262.058 69.3828C261.205 69.718 260.256 69.8856 259.211 69.8856ZM259.143 62.6924C259.95 62.6924 260.631 62.5078 261.188 62.1385C261.745 61.7691 262.168 61.2379 262.458 60.5447C262.748 59.8515 262.893 59.022 262.893 58.0561C262.893 57.1129 262.751 56.2805 262.467 55.5589C262.183 54.8373 261.762 54.272 261.205 53.8629C260.648 53.4538 259.961 53.2493 259.143 53.2493C258.29 53.2493 257.58 53.4652 257.012 53.897C256.45 54.3288 256.026 54.9083 255.742 55.6356C255.464 56.3629 255.325 57.1697 255.325 58.0561C255.325 58.9652 255.467 59.7691 255.751 60.468C256.04 61.1612 256.467 61.7066 257.029 62.1044C257.597 62.4964 258.302 62.6924 259.143 62.6924ZM270.563 56.8288V64.7038H268.552V51.6129H270.495V53.6583H270.665C270.972 52.9936 271.438 52.4595 272.063 52.0561C272.688 51.647 273.495 51.4424 274.484 51.4424C275.37 51.4424 276.146 51.6243 276.81 51.9879C277.475 52.3458 277.992 52.8913 278.362 53.6243C278.731 54.3515 278.915 55.272 278.915 56.3856V64.7038H276.904V56.522C276.904 55.4936 276.637 54.6924 276.103 54.1186C275.569 53.539 274.836 53.2493 273.904 53.2493C273.262 53.2493 272.688 53.3885 272.183 53.6669C271.683 53.9453 271.288 54.3515 270.998 54.8856C270.708 55.4197 270.563 56.0674 270.563 56.8288ZM288.08 64.9765C286.818 64.9765 285.73 64.6981 284.815 64.1413C283.906 63.5788 283.205 62.7947 282.71 61.789C282.222 60.7777 281.977 59.6015 281.977 58.2606C281.977 56.9197 282.222 55.7379 282.71 54.7152C283.205 53.6868 283.892 52.8856 284.773 52.3118C285.659 51.7322 286.693 51.4424 287.875 51.4424C288.557 51.4424 289.23 51.5561 289.895 51.7833C290.56 52.0106 291.165 52.3799 291.71 52.8913C292.256 53.397 292.69 54.0674 293.014 54.9027C293.338 55.7379 293.5 56.7663 293.5 57.9879V58.8402H283.409V57.1015H291.455C291.455 56.3629 291.307 55.7038 291.011 55.1243C290.722 54.5447 290.307 54.0873 289.767 53.7521C289.233 53.4169 288.602 53.2493 287.875 53.2493C287.074 53.2493 286.381 53.4481 285.795 53.8458C285.216 54.2379 284.77 54.7493 284.457 55.3799C284.145 56.0106 283.989 56.6868 283.989 57.4083V58.5674C283.989 59.5561 284.159 60.3941 284.5 61.0816C284.847 61.7635 285.327 62.2833 285.94 62.6413C286.554 62.9936 287.267 63.1697 288.08 63.1697C288.608 63.1697 289.085 63.0958 289.511 62.9481C289.943 62.7947 290.315 62.5674 290.628 62.2663C290.94 61.9595 291.182 61.5788 291.352 61.1243L293.295 61.6697C293.091 62.3288 292.747 62.9083 292.264 63.4083C291.781 63.9027 291.185 64.289 290.474 64.5674C289.764 64.8402 288.966 64.9765 288.08 64.9765ZM296.56 64.7038V51.6129H298.503V53.5902H298.639C298.878 52.9424 299.31 52.4169 299.935 52.0135C300.56 51.61 301.264 51.4083 302.048 51.4083C302.196 51.4083 302.381 51.4112 302.602 51.4169C302.824 51.4225 302.991 51.4311 303.105 51.4424V53.4879C303.037 53.4708 302.881 53.4453 302.636 53.4112C302.398 53.3714 302.145 53.3515 301.878 53.3515C301.241 53.3515 300.673 53.485 300.173 53.7521C299.679 54.0135 299.287 54.3771 298.997 54.843C298.713 55.3032 298.571 55.8288 298.571 56.4197V64.7038H296.56Z" fill="#388A96"/>
<defs>
<linearGradient id="paint0_linear_34_277" x1="10.8" y1="0" x2="10.8" y2="7.2" gradientUnits="userSpaceOnUse">
<stop stop-color="#D9ADE9"/>
<stop offset="1" stop-color="#ADE1E9" stop-opacity="0.85"/>
</linearGradient>
<linearGradient id="paint1_linear_34_277" x1="10.8" y1="0" x2="10.8" y2="7.2" gradientUnits="userSpaceOnUse">
<stop stop-color="#D9ADE9"/>
<stop offset="1" stop-color="#ADE1E9" stop-opacity="0.85"/>
</linearGradient>
<linearGradient id="paint2_linear_34_277" x1="10.8" y1="0" x2="10.8" y2="7.2" gradientUnits="userSpaceOnUse">
<stop stop-color="#D9ADE9"/>
<stop offset="1" stop-color="#ADE1E9" stop-opacity="0.85"/>
</linearGradient>
<linearGradient id="paint3_linear_34_277" x1="10.8" y1="0" x2="10.8" y2="7.2" gradientUnits="userSpaceOnUse">
<stop stop-color="#D9ADE9"/>
<stop offset="1" stop-color="#ADE1E9" stop-opacity="0.85"/>
</linearGradient>
<linearGradient id="paint4_linear_34_277" x1="28.125" y1="0" x2="28.125" y2="20.25" gradientUnits="userSpaceOnUse">
<stop stop-color="#D9ADE9"/>
<stop offset="1" stop-color="#ADE1E9" stop-opacity="0.85"/>
</linearGradient>
<linearGradient id="paint5_linear_34_277" x1="16.7625" y1="0" x2="16.7625" y2="16.2" gradientUnits="userSpaceOnUse">
<stop stop-color="#D9ADE9"/>
<stop offset="1" stop-color="#ADE1E9" stop-opacity="0.85"/>
</linearGradient>
<linearGradient id="paint6_linear_34_277" x1="16.7625" y1="0" x2="16.7625" y2="16.2" gradientUnits="userSpaceOnUse">
<stop stop-color="#D9ADE9"/>
<stop offset="1" stop-color="#ADE1E9" stop-opacity="0.85"/>
</linearGradient>
<clipPath id="clip0_34_277">
<rect width="56.25" height="56.25" fill="white" transform="matrix(0.707106 -0.707107 0.707106 0.707107 40.9436 40.7184)"/>
</clipPath>
</defs>
</svg>
